Static Calibration
version=1
nRows=22
nColumns=19
inDegrees=yes
endheader
time	ground_force1_vx	ground_force1_vy	ground_force1_vz	ground_force1_px	ground_force1_py	ground_force1_pz	ground_torque1_x	ground_torque1_y	ground_torque1_z	ground_force2_vx	ground_force2_vy	ground_force2_vz	ground_force2_px	ground_force2_py	ground_force2_pz	ground_torque2_x	ground_torque2_y	ground_torque2_z
0.750000	4.054957	646.992859	-1.516991	0.835593	0.000000	-0.236579	0.000009	-0.357806	0.000014	-0.000000	-0.000000	0.000000	0.254000	0.000000	-0.232000	0.000000	0.000000	0.000000	
0.751000	4.058420	649.059326	-1.582990	0.835297	0.000000	-0.236733	0.000008	-0.283936	0.000024	-0.000000	-0.000000	0.000000	0.254000	0.000000	-0.232000	0.000000	0.000000	0.000000	
0.752000	4.048917	650.192505	-1.418582	0.835447	0.000000	-0.236772	0.000011	-0.402258	0.000014	-0.000000	-0.000000	0.000000	0.254000	0.000000	-0.232000	0.000000	0.000000	0.000000	
0.753000	3.896770	648.128967	-1.395474	0.835227	0.000000	-0.236848	0.000005	-0.370471	0.000040	-0.000000	-0.000000	0.000000	0.254000	0.000000	-0.232000	0.000000	0.000000	0.000000	
0.754000	4.060001	647.092957	-1.203719	0.835747	0.000000	-0.236924	0.000006	-0.354419	0.000022	-0.000000	-0.000000	0.000000	0.254000	0.000000	-0.232000	0.000000	0.000000	0.000000	
0.755000	4.014257	646.406250	-1.680485	0.835539	0.000000	-0.236680	0.000008	-0.348567	0.000014	-0.000000	-0.000000	0.000000	0.254000	0.000000	-0.232000	0.000000	0.000000	0.000000	
0.756000	4.550688	646.587891	-1.605127	0.835475	0.000000	-0.236529	0.000009	-0.296714	0.000056	-0.000000	-0.000000	0.000000	0.254000	0.000000	-0.232000	0.000000	0.000000	0.000000	
0.757000	4.116342	648.562500	-1.591528	0.835488	0.000000	-0.236694	0.000012	-0.345304	0.000026	-0.000000	-0.000000	0.000000	0.254000	0.000000	-0.232000	0.000000	0.000000	0.000000	
0.758000	3.783507	648.504700	-1.491084	0.835316	0.000000	-0.236905	-0.000001	-0.384750	0.000004	-0.000000	-0.000000	0.000000	0.254000	0.000000	-0.232000	0.000000	0.000000	0.000000	
0.759000	3.695389	647.932739	-1.347643	0.835429	0.000000	-0.236943	-0.000001	-0.407055	0.000018	-0.000000	-0.000000	0.000000	0.254000	0.000000	-0.232000	0.000000	0.000000	0.000000	
0.760000	3.605263	648.473389	-1.503295	0.835432	0.000000	-0.236829	0.000014	-0.377012	0.000018	-0.000000	-0.000000	0.000000	0.254000	0.000000	-0.232000	0.000000	0.000000	0.000000	
0.761000	3.557969	647.560181	-1.487984	0.835654	0.000000	-0.236684	0.000014	-0.325886	0.000030	-0.000000	-0.000000	0.000000	0.254000	0.000000	-0.232000	0.000000	0.000000	0.000000	
0.762000	3.882375	648.129883	-1.350306	0.835273	0.000000	-0.236768	0.000008	-0.300040	0.000025	-0.000000	-0.000000	0.000000	0.254000	0.000000	-0.232000	0.000000	0.000000	0.000000	
0.763000	3.920501	647.273743	-1.559659	0.835691	0.000000	-0.236676	0.000012	-0.386014	0.000033	-0.000000	-0.000000	0.000000	0.254000	0.000000	-0.232000	0.000000	0.000000	0.000000	
0.764000	4.316524	648.473816	-1.206414	0.835630	0.000000	-0.236592	0.000005	-0.297739	0.000029	-0.000000	-0.000000	0.000000	0.254000	0.000000	-0.232000	0.000000	0.000000	0.000000	
0.765000	4.179071	647.380188	-1.741950	0.835634	0.000000	-0.236634	0.000008	-0.236052	-0.000005	-0.000000	-0.000000	0.000000	0.254000	0.000000	-0.232000	0.000000	0.000000	0.000000	
0.766000	4.547617	646.182190	-1.321759	0.835839	0.000000	-0.236634	0.000004	-0.352864	0.000009	-0.000000	-0.000000	0.000000	0.254000	0.000000	-0.232000	0.000000	0.000000	0.000000	
0.767000	3.995179	647.442810	-1.157852	0.835617	0.000000	-0.236804	0.000014	-0.413659	0.000001	-0.000000	-0.000000	0.000000	0.254000	0.000000	-0.232000	0.000000	0.000000	0.000000	
0.768000	4.163341	646.778809	-1.242228	0.835746	0.000000	-0.236548	0.000010	-0.275341	0.000013	-0.000000	-0.000000	0.000000	0.254000	0.000000	-0.232000	0.000000	0.000000	0.000000	
0.769000	4.184128	646.439941	-1.272276	0.835659	0.000000	-0.236562	-0.000001	-0.223227	0.000023	-0.000000	-0.000000	0.000000	0.254000	0.000000	-0.232000	0.000000	0.000000	0.000000	
0.770000	3.554841	646.778870	-1.600214	0.835456	0.000000	-0.236678	0.000013	-0.343347	0.000011	-0.000000	-0.000000	0.000000	0.254000	0.000000	-0.232000	0.000000	0.000000	0.000000	
0.771000	3.939537	646.496704	-1.657390	0.835864	0.000000	-0.236596	0.000007	-0.367774	0.000037	-0.000000	-0.000000	0.000000	0.254000	0.000000	-0.232000	0.000000	0.000000	0.000000	
